<svg fill="none" height="52" viewBox="0 0 193 52" width="193" xmlns="http://www.w3.org/2000/svg" xmlns:xlink="http://www.w3.org/1999/xlink"><clipPath id="a"><path d="m37.8206 1.88062h154.836v24.0299h-154.836z"/></clipPath><g fill="#fff"><path d="m14.0128 28c3.7084-.0041 7.2638-1.479 9.886-4.1013 2.6222-2.6222 4.0971-6.1775 4.1012-9.8859v-7.20461l-6.8082-.00001v-6.80817869l-7.2046-.00000063c-3.7082.00473753-7.26319 1.47991932-9.88527 4.10199932-2.62209 2.62208-4.09720586 6.177-4.10194213 9.8852.00406042 3.7152 1.48165213 7.277 4.10868213 9.9041 2.62703 2.627 6.18893 4.1046 9.90413 4.1087zm-.0256-24.93095h4.1355v3.73913h-4.1253c-1.9061.00204-3.7335.76011-5.08134 2.10792-1.34781 1.3478-2.10582 3.1753-2.10785 5.0813.0027 1.9077.76192 3.7364 2.11109 5.0851 1.3492 1.3487 3.1781 2.1073 5.0858 2.1093 1.9056-.0013 3.7329-.759 5.0803-2.1064 1.3475-1.3475 2.105-3.1747 2.1064-5.0803v-4.12786h3.7391v4.13556c-.0033 2.8946-1.1547 5.6697-3.2015 7.7166-2.0468 2.0468-4.822 3.1982-7.7166 3.2015-2.9014-.0033-5.6831-1.1574-7.73471-3.209-2.05162-2.0516-3.20566-4.8333-3.20905-7.7347.00339-2.8946 1.15474-5.66974 3.20156-7.71656s4.822-3.1982 7.7166-3.20159zm4.1355 6.80819v4.12786c-.0013 1.0917-.4355 2.1382-1.2074 2.9101-.772.7719-1.8186 1.2062-2.9102 1.2076-1.094-.0014-2.1427-.4364-2.9165-1.2097-.7738-.7732-1.20931-1.8217-1.21134-2.9157.00136-1.0923.43584-2.1395 1.20824-2.9119s1.8196-1.20691 2.9119-1.20826z"/><g clip-path="url(#a)"><path d="m54.9725 2.43055v23.26825h-3.1174l-.4319-2.5618c-.6235.8851-1.4578 1.6011-2.4275 2.0832-.9698.4821-2.0444.7152-3.1268.6781-1.4544.0252-2.8892-.3375-4.1566-1.0508-1.2255-.7076-2.217-1.7581-2.8525-3.022-.714-1.4402-1.0678-3.0321-1.031-4.639-.0321-1.5861.3276-3.1557 1.0473-4.5697.6532-1.2679 1.6502-2.3264 2.8769-3.05467 1.2504-.7297 2.6763-1.10431 4.124-1.0834 1.1248-.02482 2.2403.20932 3.2601.68426.8988.42749 1.6762 1.07291 2.2616 1.87761v-8.61005zm-8.5046 20.45795c.6773.0243 1.3515-.1036 1.9728-.3743.6214-.2707 1.174-.6772 1.6173-1.1897.9431-1.1343 1.4298-2.579 1.3652-4.0525 0-1.7078-.4551-3.0872-1.3652-4.138-.4406-.5168-.9923-.9273-1.614-1.201-.6217-.2736-1.2972-.4033-1.9761-.3792-.6791-.0259-1.3552.1029-1.9772.3767s-1.1735.6853-1.6129 1.2035c-.9441 1.1418-1.4306 2.5931-1.3652 4.0729-.0681 1.49.4182 2.9525 1.3652 4.1054.4398.5174.9915.9282 1.6134 1.2013.622.273 1.2979.4012 1.9767.3749z"/><path d="m60.3027 1.88071c.2881-.00671.5745.04423.8426.14985.268.10562.5122.26376.7182.46514.2074.19972.3707.4406.4795.70713.1087.26653.1606.55284.1521.84057.0097.28728-.0416.57333-.1505.83938-.1088.26605-.2728.50606-.4811.70422-.2055.20214-.4495.36078-.7177.46645-.2682.10568-.5549.15621-.8431.14856-.2888.00773-.5762-.04275-.845-.14841s-.5136-.26434-.7198-.4666c-.2048-.19738-.3667-.43494-.4754-.69776-.1087-.26281-.1619-.54523-.1562-.82956-.0075-.28759.0448-.57361.1535-.84.1087-.26638.2715-.50735.4781-.70768.2053-.20443.4496-.36565.7184-.47408s.5566-.16187.8464-.15721zm-1.7971 6.81389h3.5901v17.0205h-3.5901z"/><path d="m65.6207 25.7151v-17.0205h3.1296l.4075 2.2278c.5812-.7699 1.3356-1.39228 2.2021-1.81681s1.8208-.63927 2.7858-.62687c1.0992-.02188 2.186.23602 3.1581.74942.9371.52901 1.6733 1.35216 2.0946 2.34186.5622-.9597 1.3713-1.75147 2.3432-2.29299 1.0925-.56641 2.3109-.84667 3.5412-.81457.8751-.01009 1.7444.14323 2.5632.45208.7622.29031 1.4449.75642 1.9927 1.36038.5961.6863 1.0392 1.4916 1.3 2.3622.3311 1.1151.4878 2.2746.4645 3.4375v9.6079h-3.5901v-9.5753c0-1.4825-.2975-2.6148-.8843-3.3886-.5868-.7739-1.4792-1.1648-2.6773-1.1648-.5617-.0274-1.122.0774-1.6359.3059-.5138.2284-.9668.5743-1.3226 1.0096-.7091.8743-1.0636 2.0758-1.0636 3.6044v9.2088h-3.6268v-9.5753c0-3.0329-1.1967-4.5507-3.5901-4.5534-.5585-.0194-1.1136.0942-1.6194.3314-.5059.2373-.9481.5913-1.2902 1.0329-.7226.9069-1.0826 2.1288-1.0799 3.6656v9.1069z"/><path d="m94.2235 17.2395c-.0368-1.5984.323-3.181 1.0473-4.6064.6596-1.2794 1.6758-2.3403 2.9259-3.05468 1.3136-.73793 2.8003-1.11193 4.3073-1.08337 1.507-.03008 2.998.31271 4.34.99785 1.232.6466 2.257 1.626 2.958 2.8266.745 1.3057 1.129 2.7858 1.113 4.2887-.001.4551-.034.9097-.098 1.3603h-12.8363v.1996c.015 1.3065.5129 2.5612 1.3977 3.523.4398.4361.9656.7763 1.5436.9992s1.195.3237 1.814.296c.989.0353 1.964-.2364 2.792-.7779.759-.5232 1.293-1.3128 1.495-2.2116h3.594c-.282 1.6798-1.176 3.1958-2.51 4.2561-1.453 1.138-3.261 1.7265-5.106 1.6617-1.613.0378-3.2084-.335-4.6373-1.0833-1.2947-.6929-2.3585-1.749-3.0603-3.0384-.7432-1.4007-1.115-2.9684-1.0799-4.5534zm13.0405-1.898c-.1-1.1245-.632-2.1668-1.484-2.908-.884-.7119-1.995-1.082-3.129-1.0427-1.112-.0217-2.193.3636-3.0403 1.0834-.4242.3574-.7736.7951-1.0282 1.2878-.2545.4928-.4092 1.0309-.4551 1.5836z"/><path d="m113.808 8.6946h3.126l.407 2.2278c1.288-1.6291 3.107-2.44367 5.457-2.44367.939-.00924 1.872.14372 2.759.45211.827.28859 1.574.77189 2.176 1.40916.645.7008 1.128 1.5352 1.414 2.4437.357 1.1449.527 2.3403.501 3.5394v9.3675h-3.627v-9.1761c0-1.6291-.344-2.8592-1.031-3.69-.689-.839-1.695-1.2626-3.024-1.2626-.634-.0312-1.267.0862-1.848.3429s-1.093.6456-1.497 1.1355c-.815.9884-1.223 2.346-1.223 4.0729v8.5774h-3.594z"/><path d="m135.756 20.0945c.031.4335.159.8546.375 1.2318s.514.701.872.9472c.875.5975 1.921.8948 2.979.8472.92.0407 1.834-.1721 2.641-.6151.301-.1538.555-.3867.734-.6737.178-.2871.275-.6173.281-.9554.017-.2364-.015-.4738-.095-.697-.08-.2231-.206-.4269-.37-.5982-.354-.311-.784-.5231-1.247-.615-.522-.1222-1.326-.2498-2.412-.3828-1.242-.1287-2.469-.3672-3.668-.7128-.893-.2556-1.698-.7499-2.331-1.4295-.616-.7388-.93-1.6829-.88-2.6433-.015-.9955.294-1.9688.88-2.7736.627-.8398 1.473-1.49087 2.445-1.8817 1.113-.45702 2.306-.6829 3.509-.66388 2.151 0 3.897.47653 5.236 1.42958.653.4535 1.191 1.0538 1.569 1.7527.379.6989.588 1.4768.611 2.2713h-3.492c-.044-.3843-.171-.7545-.372-1.0849-.202-.3305-.472-.6135-.793-.8294-.762-.5193-1.671-.7805-2.592-.7453-.882-.0403-1.757.1671-2.527.5987-.294.158-.539.3932-.709.6803-.171.2871-.259.6152-.256.9489-.017.2158.018.4324.102.6321.083.1996.213.3766.378.5164.36.2719.779.4548 1.223.5336.489.0977 1.275.2158 2.363.3461 1.251.1131 2.487.3533 3.688.7169.926.275 1.757.8042 2.397 1.5273.636.8092.955 1.8232.896 2.851.017 1.0135-.311 2.0028-.929 2.8062-.668.8434-1.554 1.4873-2.563 1.8613-1.17.4496-2.415.6708-3.668.6516-2.285 0-4.131-.5159-5.538-1.5476-.682-.4829-1.236-1.1238-1.616-1.868-.38-.7441-.573-1.5692-.564-2.4045z"/><path d="m151.886 1.88071c.288-.00635.575.04474.844.15033.268.10558.513.26353.72.46466.207.20033.37.44131.478.7077.109.26638.161.5524.154.84.008.28705-.044.57257-.153.83836s-.272.50599-.479.70524c-.206.20188-.451.36032-.72.46596-.268.10563-.556.15632-.844.14905-.289.00765-.575-.04288-.844-.14856-.268-.10567-.512-.26431-.717-.46645-.209-.1978-.374-.43765-.484-.70372-.109-.26607-.161-.5523-.152-.83988-.008-.28799.045-.57443.154-.84095.11-.26651.274-.50723.482-.70675.206-.20138.45-.35952.718-.46514s.554-.15656.843-.14985zm-1.798 6.81389h3.595v17.0205h-3.595z"/><path d="m165.256 25.9146c-1.581.0305-3.143-.3424-4.54-1.0833-1.297-.6967-2.361-1.7588-3.06-3.0547-.743-1.4081-1.115-2.9822-1.08-4.5738-.029-1.5789.346-3.139 1.088-4.5331.7-1.2999 1.763-2.3683 3.06-3.07497 1.393-.75176 2.957-1.1306 4.54-1.09968 1.583-.02999 3.146.34878 4.54 1.09968 1.294.70807 2.356 1.77617 3.056 3.07497.741 1.3945 1.114 2.9546 1.084 4.5331.033 1.5919-.34 3.1661-1.084 4.5738-.699 1.2947-1.761 2.3566-3.056 3.0547-1.4.7413-2.965 1.1141-4.548 1.0833zm0-3.0586c.686.0249 1.369-.1041 1.999-.3776.629-.2734 1.19-.6844 1.64-1.2027.952-1.1384 1.444-2.5907 1.381-4.0729.064-1.4822-.429-2.9348-1.381-4.0728-.45-.5183-1.011-.9293-1.64-1.2028-.63-.2735-1.313-.4025-1.999-.3775-.685-.0266-1.367.1016-1.995.3753-.628.2736-1.186.6855-1.632 1.205-.942 1.1427-1.429 2.5933-1.365 4.0728-.062 1.4793.424 2.9296 1.365 4.0729.446.5194 1.004.9313 1.632 1.205.628.2736 1.31.4019 1.995.3753z"/><path d="m176.817 8.6946h3.129l.408 2.2278c1.288-1.6291 3.106-2.44367 5.456-2.44367.939-.00924 1.873.14372 2.759.45211.829.28944 1.576.77257 2.18 1.40916.643.7028 1.125 1.5365 1.414 2.4437.354 1.1456.522 2.3406.498 3.5394v9.3675h-3.619v-9.1761c0-1.6291-.344-2.8592-1.031-3.69-.685-.839-1.695-1.2626-3.024-1.2626-.633-.0306-1.266.0872-1.846.3439-.58.2566-1.092.6451-1.495 1.1345-.815.9884-1.223 2.346-1.223 4.0729v8.5774h-3.606z"/></g><path d="m48.2895 44.01v-1.15h-2.72v-1.99h3.24v-1.18h-4.52v7.31h1.28v-2.99zm2.823.51c0 1.54 1.11 2.6 2.64 2.6s2.64-1.06 2.64-2.6-1.11-2.6-2.64-2.6-2.64 1.06-2.64 2.6zm1.22 0c0-.9.58-1.51 1.42-1.51s1.42.61 1.42 1.51-.58 1.51-1.42 1.51-1.42-.61-1.42-1.51zm10.127-2.48c-.2-.05-.37-.07-.54-.07-.66 0-1.13.33-1.34.82l-.07-.72h-1.15v4.93h1.22v-2.4c0-.96.55-1.43 1.43-1.43h.45zm4.0458 4.96v-2.8c0-.8.47-1.18 1.05-1.18s.95.37.95 1.06v2.92h1.22v-2.8c0-.81.45-1.19 1.04-1.19.58 0 .96.37.96 1.08v2.91h1.21v-3.23c0-1.14-.66-1.86-1.86-1.86-.75 0-1.33.37-1.58.94-.26-.57-.78-.94-1.53-.94-.71 0-1.21.32-1.46.73l-.1-.58h-1.12v4.94zm11.8376.13c1.29 0 2.19-.65 2.4-1.73h-1.13c-.14.47-.58.73-1.25.73-.81 0-1.27-.44-1.36-1.31l3.72-.01v-.37c0-1.54-.94-2.53-2.42-2.53-1.45 0-2.46 1.07-2.46 2.62 0 1.53 1.03 2.6 2.5 2.6zm-.03-4.22c.73 0 1.2.45 1.2 1.13h-2.48c.12-.74.56-1.13 1.28-1.13zm8.4864-.87c-.2-.05-.37-.07-.54-.07-.66 0-1.13.33-1.34.82l-.07-.72h-1.15v4.93h1.22v-2.4c0-.96.55-1.43 1.43-1.43h.45zm4.0558 4.96v-7.44h-1.21v7.44zm2.8498 2.29c.27.07.57.11.91.11.81 0 1.33-.38 1.7-1.3l2.42-6.04h-1.26l-1.34 3.6-1.27-3.6h-1.29l1.99 5.15-.14.37c-.21.58-.51.69-.99.69h-.73zm11.9581-8.42h2.14v6.13h1.28v-6.13h2.14v-1.18h-5.56zm10.863 1.17c-.2-.05-.37-.07-.54-.07-.66 0-1.13.33-1.34.82l-.07-.72h-1.15v4.93h1.22v-2.4c0-.96.55-1.43 1.43-1.43h.45zm4.1 5.09c.77 0 1.44-.35 1.65-.86l.09.73h1.07v-3c0-1.37-.82-2.09-2.15-2.09-1.34 0-2.22.7-2.22 1.77h1.04c0-.52.4-.82 1.12-.82.62 0 1.02.27 1.02.94v.11l-1.48.11c-1.17.09-1.83.66-1.83 1.57 0 .93.64 1.54 1.69 1.54zm.4-.92c-.55 0-.85-.22-.85-.67 0-.4.29-.65 1.05-.72l1.03-.08v.26c0 .76-.48 1.21-1.23 1.21zm5.229-.71c0 .97.78 1.63 2.01 1.63 1.22 0 2.07-.62 2.07-1.62 0-.76-.42-1.14-1.25-1.33l-.89-.21c-.42-.1-.64-.28-.64-.56 0-.37.28-.59.76-.59.47 0 .75.27.76.69h1.16c-.01-.96-.76-1.6-1.87-1.6-1.14 0-1.96.58-1.96 1.55 0 .79.43 1.21 1.32 1.41l.89.21c.44.1.57.28.57.53 0 .36-.31.59-.88.59-.56 0-.88-.27-.89-.7zm8.229 1.5v-2.7c0-.74.45-1.28 1.22-1.28.62 0 1.03.4 1.03 1.23v2.75h1.22v-3.04c0-1.28-.64-2.05-1.86-2.05-.71 0-1.29.31-1.6.79v-3.14h-1.23v7.44zm13.064 0h1.26l1.59-5.32 1.56 5.32h1.24l2.22-7.31h-1.3l-1.18 3.87c-.11.37-.21.76-.35 1.44-.12-.62-.23-1.04-.35-1.45l-1.13-3.86h-1.41l-1.15 3.86c-.13.42-.24.8-.36 1.45-.11-.64-.22-1.05-.33-1.45l-1.16-3.86h-1.33zm11.379.13c.77 0 1.44-.35 1.65-.86l.09.73h1.07v-3c0-1.37-.82-2.09-2.15-2.09-1.34 0-2.22.7-2.22 1.77h1.04c0-.52.4-.82 1.12-.82.62 0 1.02.27 1.02.94v.11l-1.48.11c-1.17.09-1.83.66-1.83 1.57 0 .93.64 1.54 1.69 1.54zm.4-.92c-.55 0-.85-.22-.85-.67 0-.4.29-.65 1.05-.72l1.03-.08v.26c0 .76-.48 1.21-1.23 1.21zm8.709-4.17c-.2-.05-.37-.07-.54-.07-.66 0-1.13.33-1.34.82l-.07-.72h-1.15v4.93h1.22v-2.4c0-.96.55-1.43 1.43-1.43h.45zm5.925 0c-.2-.05-.37-.07-.54-.07-.66 0-1.13.33-1.34.82l-.07-.72h-1.15v4.93h1.22v-2.4c0-.96.55-1.43 1.43-1.43h.45zm3.436-.97c.4 0 .73-.33.73-.74s-.33-.73-.73-.73c-.42 0-.75.32-.75.73s.33.74.75.74zm-.61 5.93h1.22v-4.94h-1.22zm4.191-2.48c0 1.54 1.11 2.6 2.64 2.6s2.64-1.06 2.64-2.6-1.11-2.6-2.64-2.6-2.64 1.06-2.64 2.6zm1.22 0c0-.9.58-1.51 1.42-1.51s1.42.61 1.42 1.51-.58 1.51-1.42 1.51-1.42-.61-1.42-1.51zm10.127-2.48c-.2-.05-.37-.07-.54-.07-.66 0-1.13.33-1.34.82l-.07-.72h-1.15v4.93h1.22v-2.4c0-.96.55-1.43 1.43-1.43h.45z" fill-opacity=".85"/></g></svg>