<svg xmlns="http://www.w3.org/2000/svg" version="1.1" xmlns:xlink="http://www.w3.org/1999/xlink" xmlns:svgjs="http://svgjs.dev/svgjs" width="1000" height="1000" viewBox="0 0 1000 1000"><rect width="1000" height="1000" fill="#35185a"></rect><g transform="matrix(0.7,0,0,0.7,150.4400629921259,154.48000831616025)"><svg viewBox="0 0 250 247" data-background-color="#35185a" preserveAspectRatio="xMidYMid meet" height="988" width="1000" xmlns="http://www.w3.org/2000/svg" xmlns:xlink="http://www.w3.org/1999/xlink"><g id="tight-bounds" transform="matrix(1,0,0,1,-0.15716535433068657,-0.10000297005720427)"><svg viewBox="0 0 250.3143307086614 247.2" height="247.2" width="250.3143307086614"><g><svg viewBox="0 0 250.3143307086614 247.2" height="247.2" width="250.3143307086614"><g><svg viewBox="0 0 250.3143307086614 247.2" height="247.2" width="250.3143307086614"><g id="textblocktransform"><svg viewBox="0 0 250.3143307086614 247.2" height="247.2" width="250.3143307086614" id="textblock"><g><svg viewBox="0 0 250.3143307086614 247.2" height="247.2" width="250.3143307086614"><g transform="matrix(1,0,0,1,0,0)"><svg width="250.3143307086614" viewBox="3.5999999046325684 -31.700000762939453 32.150001525878906 31.75" height="247.2" data-palette-color="#a437db"><path d="M32.45-31.6Q33.15-31.6 34.18-30.68 35.2-29.75 35.2-29.1L35.2-29.1Q35.2-26.05 35-20.75L35-20.75Q34.95-19.45 34.9-17.63 34.85-15.8 34.85-13.4L34.85-13.4Q34.85-5.8 35.75-2.2L35.75-2.2Q35.7-1 34.8-0.48 33.9 0.05 33 0.05L33 0.05Q31 0.05 30.38-1.35 29.75-2.75 29.75-5.35L29.75-5.35Q29.75-15 29.95-23.1L29.95-23.1Q24.2-16.7 21-12.35L21-12.35Q21-12.35 20.1-11.75L20.1-11.75Q19.25-11 18.7-11L18.7-11Q17.4-11 16.55-11.65 15.7-12.3 14.9-13.55L14.9-13.55 12.5-16.95Q10-20.45 8.85-22.25L8.85-22.25Q8.85-17.65 9.3-9.75L9.3-9.75Q9.65-5.2 9.65-2.9L9.65-2.9Q9.65-1.7 9.05-0.88 8.45-0.05 7.15-0.05L7.15-0.05Q5.85-0.05 5.03-0.55 4.2-1.05 4.15-2.05L4.15-2.05Q4.2-2.9 4.2-4.85L4.2-4.85Q4.2-8.75 3.95-14.35L3.95-14.35 3.85-17.05 3.75-20.55Q3.7-22.1 3.65-24.18 3.6-26.25 3.6-28.7L3.6-28.7Q3.6-31.7 6.85-31.7L6.85-31.7Q7.85-31.7 8.88-31.2 9.9-30.7 10.4-29.75L10.4-29.75Q10.8-28 13.35-23.95 15.9-19.9 18.35-16.35L18.35-16.35Q20.55-19.15 21.95-20.55L21.95-20.55Q24.35-23 25.93-25.1 27.5-27.2 29.35-30.15L29.35-30.15Q29.8-30.75 30.65-31.18 31.5-31.6 32.45-31.6L32.45-31.6Z" opacity="1" transform="matrix(1,0,0,1,0,0)" fill="#a437db" class="undefined-text-0" data-fill-palette-color="primary" id="text-0"></path></svg></g></svg></g></svg></g></svg></g></svg></g><defs></defs></svg><rect width="250.3143307086614" height="247.2" fill="none" stroke="none" visibility="hidden"></rect></g></svg></g></svg>